<?xml version="1.0" encoding="UTF-8" standalone="no"?>
<!-- Created with Inkscape (http://www.inkscape.org/) -->

<svg
   xmlns:dc="http://purl.org/dc/elements/1.1/"
   xmlns:cc="http://creativecommons.org/ns#"
   xmlns:rdf="http://www.w3.org/1999/02/22-rdf-syntax-ns#"
   xmlns:svg="http://www.w3.org/2000/svg"
   xmlns="http://www.w3.org/2000/svg"
   xmlns:sodipodi="http://sodipodi.sourceforge.net/DTD/sodipodi-0.dtd"
   xmlns:inkscape="http://www.inkscape.org/namespaces/inkscape"
   width="845.12701"
   height="1000"
   id="svg4948"
   version="1.1"
   inkscape:version="0.92.3 (2405546, 2018-03-11)"
   sodipodi:docname="Android_robot.svg">
  <defs
     id="defs4950" />
  <sodipodi:namedview
     id="base"
     pagecolor="#ffffff"
     bordercolor="#666666"
     borderopacity="1.0"
     inkscape:pageopacity="0.0"
     inkscape:pageshadow="2"
     inkscape:zoom="0.5"
     inkscape:cx="463.85735"
     inkscape:cy="609.27458"
     inkscape:document-units="px"
     inkscape:current-layer="layer1"
     showgrid="false"
     inkscape:window-width="1360"
     inkscape:window-height="706"
     inkscape:window-x="-8"
     inkscape:window-y="-8"
     inkscape:window-maximized="1" />
  <metadata
     id="metadata4953">
    <rdf:RDF>
      <cc:Work
         rdf:about="">
        <dc:format>image/svg+xml</dc:format>
        <dc:type
           rdf:resource="http://purl.org/dc/dcmitype/StillImage" />
        <dc:title></dc:title>
      </cc:Work>
    </rdf:RDF>
  </metadata>
  <g
     inkscape:label="Layer 1"
     inkscape:groupmode="layer"
     id="layer1"
     transform="translate(0,-52.362142)">
    <path
       style="fill-opacity:1;stroke:none;stroke-width:2.99069023"
       d="M 61.854731,376.98148 C 27.408954,376.98148 0,404.39043 0,438.83622 v 257.64911 c 0,34.44578 27.408954,61.85474 61.854731,61.85474 34.445775,0 61.854729,-27.40896 61.854729,-61.85474 V 438.83622 c 0,-34.44579 -27.408954,-61.85474 -61.854729,-61.85474 z m 721.417559,0 c -34.44579,0 -61.85474,27.40895 -61.85474,61.85474 v 257.64911 c 0,34.44578 27.40895,61.85474 61.85474,61.85474 34.44578,0 61.85471,-27.40896 61.85471,-61.85474 V 438.83622 c 0,-34.44579 -27.40893,-61.85474 -61.85471,-61.85474 z"
       id="rect3981-7"
       inkscape:connector-curvature="0" />
    <path
       style="fill-opacity:1;stroke:none;stroke-width:2.99069023"
       d="m 319.50188,671.00384 c -34.4458,0 -61.85474,27.40896 -61.85474,61.85474 v 257.64917 c 0,34.44585 27.40894,61.85435 61.85474,61.85435 34.44578,0 61.85474,-27.4085 61.85474,-61.85435 V 732.85858 c 0,-34.44578 -27.40896,-61.85474 -61.85474,-61.85474 z m 206.1193,0 c -34.44579,0 -61.85474,27.40896 -61.85474,61.85474 v 257.64917 c 0,34.44585 27.40895,61.85435 61.85474,61.85435 34.44578,0 61.85471,-27.4085 61.85471,-61.85435 V 732.85858 c 0,-34.44578 -27.40893,-61.85474 -61.85471,-61.85474 z"
       id="c-4-0"
       inkscape:connector-curvature="0" />
    <path
       style="fill-opacity:1;stroke-width:2.99069023"
       d="M 251.30078 0 C 249.83857 0.01495 248.47595 0.39224575 247.13281 1.1367188 C 242.7221 3.5816377 241.27157 8.6503806 243.72266 13.072266 L 287.29492 91.787109 C 203.46246 135.40747 146.8381 218.3039 146.72461 313.44141 L 698.39844 313.44141 C 698.2851 218.3039 641.66061 135.40747 557.82812 91.787109 L 601.40039 13.072266 C 603.85147 8.6503806 602.40093 3.5816378 597.99023 1.1367188 C 596.64708 0.39224575 595.28447 0.013937 593.82227 0 C 590.69206 -0.03021 587.72482 1.533934 586.05469 4.546875 L 541.91406 84.115234 C 505.80468 68.098294 465.303 59.107422 422.5625 59.107422 C 379.82198 59.107422 339.31834 68.098294 303.20898 84.115234 L 259.06836 4.546875 C 257.39825 1.533934 254.43094 -0.030026 251.30078 0 z M 295.25195 166.42969 C 307.84561 166.42969 318.26953 176.85554 318.26953 189.44922 C 318.26953 202.04287 307.84561 212.4668 295.25195 212.4668 C 282.6583 212.4668 272.23438 202.04287 272.23438 189.44922 C 272.23438 176.85554 282.6583 166.42969 295.25195 166.42969 z M 549.86914 166.42969 C 562.46275 166.42969 572.88672 176.85554 572.88672 189.44922 C 572.88672 202.04287 562.46275 212.4668 549.86914 212.4668 C 537.27549 212.4668 526.85156 202.04287 526.85156 189.44922 C 526.85156 176.85554 537.27549 166.42969 549.86914 166.42969 z M 146.72461 335.22852 L 146.72461 735.05859 C 146.72461 772.00244 176.46631 801.74414 213.41016 801.74414 L 631.71289 801.74414 C 668.65677 801.74414 698.39844 772.00244 698.39844 735.05859 L 698.39844 335.22852 L 146.72461 335.22852 z "
       transform="translate(0,52.362142)"
       id="ellipse3033" />
  </g>
</svg>
