<?xml version="1.0" encoding="UTF-8" standalone="no"?>
<svg
   xmlns:dc="http://purl.org/dc/elements/1.1/"
   xmlns:cc="http://creativecommons.org/ns#"
   xmlns:rdf="http://www.w3.org/1999/02/22-rdf-syntax-ns#"
   xmlns:svg="http://www.w3.org/2000/svg"
   xmlns="http://www.w3.org/2000/svg"
   xmlns:sodipodi="http://sodipodi.sourceforge.net/DTD/sodipodi-0.dtd"
   xmlns:inkscape="http://www.inkscape.org/namespaces/inkscape"
   version="1.1"
   x="0"
   y="0"
   width="1000"
   height="273.58099"
   viewBox="0 0 1000 273.58099"
   id="svg9781"
   inkscape:version="0.91 r13725"
   sodipodi:docname="PayPal 2007.svg">
  <metadata
     id="metadata9805">
    <rdf:RDF>
      <cc:Work
         rdf:about="">
        <dc:format>image/svg+xml</dc:format>
        <dc:type
           rdf:resource="http://purl.org/dc/dcmitype/StillImage" />
        <dc:title>PayPal™ Logo</dc:title>
      </cc:Work>
    </rdf:RDF>
  </metadata>
  <defs
     id="defs9803" />
  <sodipodi:namedview
     pagecolor="#ffffff"
     bordercolor="#666666"
     borderopacity="1"
     objecttolerance="10"
     gridtolerance="10"
     guidetolerance="10"
     inkscape:pageopacity="0"
     inkscape:pageshadow="2"
     inkscape:window-width="1366"
     inkscape:window-height="705"
     id="namedview9801"
     showgrid="false"
     inkscape:zoom="0.35355339"
     inkscape:cx="695.2212"
     inkscape:cy="448.92914"
     inkscape:window-x="-8"
     inkscape:window-y="-8"
     inkscape:window-maximized="1"
     inkscape:current-layer="svg9781" />
  <title
     id="title9783">PayPal™ Logo</title>
  <polygon
     points="578.924,23.963 578.924,19.214 580.532,19.214 581.845,21.795 583.119,19.214 584.646,19.214 584.646,23.963 583.796,23.963 583.796,19.797 583.645,19.797 582.071,22.85 581.531,22.85 579.926,19.75 579.75,19.75 579.75,23.963 "
     id="polygon9785"
     transform="matrix(1.7638867,0,0,1.7638867,-31.249306,-31.241544)"
     style="fill:#15699c" />
  <polygon
     points="576.218,20.017 576.218,23.963 575.345,23.963 575.345,20.017 573.81,20.017 573.81,19.214 577.75,19.214 577.75,20.017 "
     id="polygon9787"
     transform="matrix(1.7638867,0,0,1.7638867,-31.249306,-31.241544)"
     style="fill:#15699c" />
  <path
     d="M 972.41106,1.6108433 929.92961,193.2783 c -1.45168,6.22123 -7.85459,11.33121 -14.22398,11.33121 l -26.56767,0 c -6.4029,0 -10.44221,-5.10821 -9.0258,-11.33121 l 39.885,-180.336249 c 1.41817,-6.2371027 7.84401,-11.3312077 14.23633,-11.3312077 l 38.17757,0 z"
     id="path9789"
     inkscape:connector-curvature="0"
     style="fill:#15699c" />
  <path
     d="m 860.38132,55.330012 c -11.29593,-6.334117 -28.95597,-9.472071 -53.10357,-9.472071 -11.98385,0 -24.01179,0.904874 -36.00622,2.760483 -12.08616,1.853844 -20.9832,3.518953 -26.7564,4.991799 l -5.02355,25.519913 c -1.19415,6.268853 -0.1905,11.39118 2.3248,11.39118 4.85775,-1.788581 12.22197,-4.078106 22.00802,-6.836825 9.82308,-2.744607 18.80479,-4.116911 26.88163,-4.116911 11.95033,0 20.92146,1.27529 26.96277,3.822342 5.99722,2.599969 9.02052,7.064366 9.02052,13.440817 0,1.518706 -0.19579,2.949218 -0.4639,4.196291 -0.31045,1.26471 -0.55739,2.1784 -0.62442,2.73755 -17.05855,0.98425 -32.84886,2.5594 -47.55086,4.6937 -14.60145,2.07786 -27.19031,5.51391 -37.78421,10.27641 -11.26948,5.07999 -19.80669,11.81804 -25.52168,20.29881 -5.76791,8.48958 -8.64481,18.82419 -8.64481,31.03029 0,11.55522 4.03048,20.92675 12.12849,28.12517 8.11387,7.19843 18.5455,10.80381 31.34603,10.80381 7.94631,0 14.15871,-0.58208 18.66545,-1.69333 4.49438,-1.12183 9.24276,-2.74461 14.38978,-4.89655 3.74473,-1.66511 7.80697,-3.95463 12.21139,-6.85976 4.3762,-2.8522 8.13152,-5.33223 11.24301,-7.41361 l -3.81881,16.48176 37.375,0 c 6.38703,0 12.78288,-5.10822 14.23103,-11.33121 l 21.67641,-93.69414 c 0.53798,-2.215442 0.99659,-4.764258 1.28234,-7.729352 0.31574,-2.924524 0.50095,-5.296951 0.50095,-7.115519 0.002,-13.3244 -5.67266,-23.089277 -16.94919,-29.411047 z M 811.58163,164.37349 c -4.86304,3.49955 -10.04534,6.35881 -15.55748,8.60248 -5.51391,2.24543 -10.64506,3.39372 -15.51868,3.39372 -7.3801,0 -13.02806,-1.07774 -16.89098,-3.2385 -3.88584,-2.12901 -5.84022,-5.84552 -5.84022,-11.15129 0,-6.02015 1.45697,-10.8726 4.39207,-14.52032 2.91747,-3.62655 7.15786,-6.46288 12.67882,-8.48958 5.4363,-1.91206 11.9274,-3.37608 19.58973,-4.39385 7.65174,-0.9913 15.86263,-1.87148 24.63267,-2.60878 l -7.48593,32.40612 z"
     id="path9791"
     inkscape:connector-curvature="0"
     style="fill:#15699c" />
  <path
     d="M 720.68855,29.732489 C 716.95264,22.565817 711.4546,16.715005 704.33732,12.229441 697.0313,7.7138913 688.45352,4.5724093 678.49109,2.7432583 668.53218,0.92469135 656.87642,4.1434766e-4 643.44266,4.1434766e-4 l -62.09234,0 c -6.39762,0 -12.7776,5.06941095234 -14.22928,11.28887465234 L 525.13525,193.24832 c -1.4164,6.25298 2.62995,11.36119 9.0064,11.36119 l 29.8044,0 c 6.40114,0 12.79876,-5.10821 14.23456,-11.33121 l 10.21114,-44.10775 c 1.41111,-6.22122 7.83342,-11.33826 14.22575,-11.33826 l 8.51604,0 c 36.32549,0 64.60765,-7.43126 84.87294,-22.34844 20.21943,-14.92249 30.35296,-34.55455 30.35296,-58.90677 0.004,-10.719139 -1.85208,-19.663809 -5.67089,-26.844591 z m -64.21959,59.46062 c -8.9235,6.526381 -21.45063,9.812502 -37.48965,9.812502 l -7.42067,0 c -6.39232,0 -10.43163,-5.072938 -9.0064,-11.338264 l 8.92703,-38.604424 c 1.45697,-6.221228 7.83694,-11.301222 14.22398,-11.301222 l 9.71549,0 c 11.43351,0 20.02364,1.927928 25.80037,5.794368 5.7926,3.797648 8.68538,9.70314 8.68538,17.675908 -0.002,12.098499 -4.48557,21.418877 -13.43553,27.961132 z"
     id="path9793"
     inkscape:connector-curvature="0"
     style="fill:#15699c" />
  <path
     d="m 503.83279,45.963774 c -6.39762,0 -14.79548,5.104688 -18.64252,11.331208 L 432.57529,147.45958 418.17492,57.434329 C 416.7056,51.176059 410.32386,46.113704 403.9333,46.113704 l -26.5659,0 c -6.40291,0 -10.47043,5.064119 -9.02228,11.320625 L 391.3709,206.0947 c 0.41451,3.21381 0.83255,5.93196 1.2259,8.23559 l -28.64728,47.91598 c -3.85233,6.22829 -1.76918,11.33474 4.66019,11.33474 l 30.79746,0 c 6.39232,0 14.75315,-5.10645 18.59842,-11.33474 l 128.23456,-216.282496 -42.40736,0 z"
     id="path9795"
     inkscape:connector-curvature="0"
     style="fill:#173764" />
  <path
     d="m 335.54741,55.666915 c -11.29593,-6.351756 -28.99829,-9.493238 -53.13532,-9.493238 -11.96268,0 -23.96593,0.918985 -36.00622,2.779885 -12.08262,1.830914 -20.9832,3.503079 -26.71935,4.975924 l -5.01297,25.537552 c -1.2506,6.277673 -0.23813,11.403528 2.27894,11.403528 4.89831,-1.788581 12.23961,-4.078106 22.05388,-6.847409 9.80897,-2.749899 18.76422,-4.123967 26.83048,-4.123967 11.95562,0 20.94615,1.277054 26.95219,3.824107 6.01309,2.577038 9.0311,7.067894 9.0311,13.446108 0,1.52929 -0.18874,2.945695 -0.41805,4.180415 -0.34572,1.27176 -0.56091,2.2031 -0.65969,2.75343 -17.04796,0.98248 -32.87003,2.55411 -47.51205,4.66724 -14.62262,2.09197 -27.23088,5.54037 -37.82302,10.29757 -11.28182,5.07823 -19.81551,11.81804 -25.53403,20.31292 -5.76614,8.47901 -8.62893,18.80833 -8.62893,31.00384 0,11.56051 4.03577,20.94792 12.16023,28.13576 8.06626,7.18078 18.54551,10.80909 31.31958,10.80909 7.94631,0 14.18341,-0.58737 18.64781,-1.68804 4.48556,-1.15711 9.29039,-2.7499 14.39684,-4.90537 3.75179,-1.66334 7.83342,-3.9511 12.23961,-6.83858 4.33563,-2.87514 8.14386,-5.37104 11.20421,-7.42773 l -3.80294,16.45353 37.37323,0 c 6.38351,0 12.81287,-5.10645 14.2328,-11.31357 l 21.67993,-93.697661 c 0.55739,-2.196039 0.98425,-4.778369 1.28235,-7.725824 0.3369,-2.945691 0.47978,-5.295188 0.47978,-7.115519 0,-13.308525 -5.62504,-23.09986 -16.91039,-29.403991 z M 286.73185,164.69276 c -4.83129,3.51189 -10.02946,6.37645 -15.53984,8.63069 -5.50333,2.2419 -10.68034,3.3849 -15.51162,3.3849 -7.41009,0 -13.04747,-1.09184 -16.92802,-3.22438 -3.85233,-2.14489 -5.81377,-5.87022 -5.81377,-11.16541 0,-6.02191 1.44991,-10.86906 4.3956,-14.52031 2.88925,-3.62832 7.16315,-6.48052 12.68058,-8.51252 5.39573,-1.88383 11.89036,-3.34256 19.5421,-4.37091 7.66409,-0.99307 15.89615,-1.8609 24.68031,-2.59997 l -7.50534,32.37791 z"
     id="path9797"
     inkscape:connector-curvature="0"
     style="fill:#173764" />
  <path
     d="M 195.85641,30.062335 C 192.1152,22.899191 186.63304,17.034268 179.47166,12.569871 172.20797,8.0684323 163.57551,4.9181303 153.65012,3.0836883 143.67181,1.2404273 132.00723,0.33378935 118.56288,0.33378935 l -62.048239,0 c -6.387034,0 -12.804054,5.06940995 -14.222219,11.30298565 L 0.29251616,193.57816 c -1.44462316,6.2424 2.60526064,11.34885 8.97818324,11.34885 l 29.8237966,0 c 6.378214,0 12.805817,-5.10645 14.225746,-11.31357 L 63.52609,149.48453 c 1.446387,-6.20007 7.847532,-11.30652 14.220455,-11.30652 l 8.516045,0 c 36.3784,0 64.6341,-7.43302 84.87823,-22.36255 20.22649,-14.91896 30.38472,-34.538674 30.38472,-58.908533 0,-10.73325 -1.8609,-19.654989 -5.66913,-26.844592 z m -64.239,59.476496 c -8.95525,6.521089 -21.42417,9.814266 -37.505524,9.814266 l -7.380102,0 c -6.432895,0 -10.46514,-5.106452 -9.025808,-11.3365 L 86.629478,49.4157 c 1.419929,-6.22652 7.854588,-11.306513 14.231042,-11.306513 l 9.74018,0 c 11.38236,0 20.00247,1.922636 25.7792,5.787312 5.79613,3.808231 8.6748,9.715488 8.6748,17.672381 0.002,12.075568 -4.47322,21.403001 -13.43729,27.969951 z"
     id="path9799"
     inkscape:connector-curvature="0"
     style="fill:#173764" />
</svg>
